<?xml version="1.0" encoding="utf-8" ?>
<svg baseProfile="tiny" height="100%" version="1.2" width="100%" xmlns="http://www.w3.org/2000/svg" xmlns:ev="http://www.w3.org/2001/xml-events" xmlns:xlink="http://www.w3.org/1999/xlink"><defs /><polygon fill="black" points="824,695 823,696 820,696 819,697 817,697 816,698 815,698 814,699 812,699 811,700 810,700 808,702 807,702 804,705 803,705 799,709 799,710 796,713 796,714 794,716 794,717 793,718 793,719 792,720 792,721 791,722 791,724 790,725 790,727 789,728 789,731 788,732 788,739 787,740 787,748 788,749 788,755 789,756 789,759 790,760 790,763 791,764 791,765 792,766 792,767 793,768 793,769 794,770 794,771 796,773 796,774 801,779 801,780 802,780 806,784 807,784 808,785 809,785 811,787 813,787 814,788 815,788 816,789 818,789 819,790 822,790 823,791 829,791 830,792 838,792 839,791 845,791 846,790 849,790 850,789 852,789 853,788 855,788 856,787 857,787 858,786 859,786 860,785 861,785 863,783 864,783 873,774 873,773 875,771 875,770 876,769 876,768 877,767 877,766 878,765 878,763 879,762 879,760 880,759 880,755 881,754 881,733 880,732 880,728 879,727 879,725 878,724 878,722 877,721 877,720 876,719 876,718 875,717 875,716 873,714 873,713 863,703 862,703 860,701 859,701 858,700 857,700 856,699 855,699 854,698 853,698 852,697 850,697 849,696 845,696 844,695" /><polygon fill="black" points="660,695 659,696 656,696 655,697 653,697 652,698 651,698 650,699 649,699 646,702 645,702 642,705 642,706 640,708 639,707 639,706 640,705 640,697 620,697 620,789 640,789 640,732 641,731 641,729 642,728 642,727 643,726 643,725 645,723 645,722 648,719 649,719 651,717 652,717 654,715 656,715 657,714 661,714 662,713 667,713 668,714 671,714 672,715 673,715 674,716 675,716 677,718 678,718 680,720 680,721 681,722 681,723 682,724 682,725 683,726 683,729 684,730 684,789 704,789 704,723 703,722 703,719 702,718 702,715 701,714 701,713 700,712 700,711 699,710 699,709 698,708 698,707 691,700 690,700 688,698 687,698 686,697 684,697 683,696 681,696 680,695" /><polygon fill="black" points="551,695 550,696 547,696 546,697 544,697 543,698 541,698 540,699 539,699 538,700 537,700 535,702 534,702 530,706 529,706 528,707 528,708 524,712 524,713 522,715 522,716 520,718 520,720 519,721 519,722 518,723 518,724 517,725 517,727 516,728 516,732 515,733 515,742 514,743 515,744 515,754 516,755 516,758 517,759 517,762 518,763 518,764 519,765 519,767 521,769 521,770 522,771 522,772 524,774 524,775 531,782 532,782 535,785 536,785 537,786 538,786 539,787 540,787 541,788 542,788 543,789 546,789 547,790 550,790 551,791 570,791 571,790 574,790 575,789 577,789 578,788 580,788 581,787 582,787 584,785 585,785 586,784 587,784 596,775 596,774 598,772 598,771 599,770 598,769 597,769 596,768 595,768 593,766 591,766 590,765 589,765 588,764 587,764 586,763 585,763 584,762 576,770 575,770 573,772 572,772 571,773 569,773 568,774 563,774 562,775 559,775 558,774 554,774 553,773 551,773 550,772 549,772 548,771 547,771 540,764 540,763 538,761 538,760 537,759 537,757 536,756 536,753 535,752 535,749 536,748 537,749 602,749 602,747 603,746 603,737 602,736 602,730 601,729 601,725 600,724 600,722 599,721 599,720 598,719 598,717 596,715 596,714 595,713 595,712 591,708 591,707 589,705 588,705 585,702 584,702 582,700 581,700 580,699 579,699 578,698 576,698 575,697 573,697 572,696 569,696 568,695" /><polygon fill="black" points="405,695 404,696 401,696 400,697 398,697 397,698 396,698 394,700 393,700 389,704 389,705 388,706 387,705 387,697 370,697 370,789 389,789 389,732 390,731 390,728 391,727 391,725 392,724 392,723 398,717 399,717 400,716 402,716 403,715 414,715 415,716 416,716 417,717 418,717 422,721 422,722 423,723 423,724 424,725 424,728 425,729 425,789 445,789 445,729 446,728 446,725 447,724 447,723 453,717 454,717 455,716 456,716 457,715 468,715 469,716 470,716 471,717 472,717 478,723 478,725 479,726 479,727 480,728 480,789 500,789 500,721 499,720 499,717 498,716 498,714 497,713 497,712 496,711 496,710 495,709 495,708 493,706 493,705 489,701 488,701 486,699 485,699 484,698 483,698 482,697 481,697 480,696 477,696 476,695 460,695 459,696 456,696 455,697 454,697 453,698 452,698 451,699 450,699 449,700 448,700 444,704 443,704 443,705 440,708 439,708 438,707 438,706 432,700 431,700 430,699 429,699 428,698 427,698 426,697 425,697 424,696 421,696 420,695" /><polygon fill="black" points="311,695 310,696 307,696 306,697 304,697 303,698 301,698 300,699 299,699 298,700 297,700 295,702 294,702 285,711 285,712 283,714 283,715 281,717 281,718 280,719 280,721 279,722 279,723 278,724 278,726 277,727 277,730 276,731 276,736 275,737 275,753 276,754 276,758 277,759 277,762 278,763 278,765 279,766 279,768 280,769 280,770 281,771 281,772 283,774 283,775 287,779 287,780 288,781 289,781 293,785 294,785 295,786 296,786 297,787 298,787 299,788 300,788 301,789 303,789 304,790 307,790 308,791 328,791 329,790 332,790 333,789 335,789 336,788 337,788 338,787 339,787 340,786 341,786 343,784 344,784 352,776 352,775 354,773 354,772 356,770 355,769 354,769 352,767 351,767 350,766 349,766 348,765 347,765 346,764 345,764 344,763 343,763 342,762 341,762 340,763 340,764 333,771 332,771 330,773 328,773 327,774 325,774 324,775 315,775 314,774 311,774 310,773 309,773 308,772 307,772 306,771 305,771 299,765 299,764 298,763 298,762 297,761 297,760 296,759 296,758 295,757 295,754 294,753 294,749 295,748 358,748 358,731 357,730 357,726 356,725 356,722 355,721 355,719 354,718 354,717 353,716 353,715 352,714 352,713 351,712 351,711 348,708 348,707 345,704 344,704 341,701 340,701 338,699 337,699 336,698 334,698 333,697 331,697 330,696 327,696 326,695" /><polygon fill="black" points="172,695 171,696 169,696 168,697 166,697 165,698 164,698 163,699 162,699 155,706 154,705 154,698 155,697 136,697 136,789 156,789 155,788 155,735 156,734 156,729 157,728 157,726 158,725 158,724 159,723 159,722 165,716 166,716 167,715 169,715 170,714 177,714 178,715 180,715 181,716 182,716 187,721 187,722 188,723 188,725 189,726 189,789 209,789 209,729 210,728 210,726 211,725 211,723 213,721 213,720 216,717 217,717 218,716 219,716 220,715 222,715 223,714 230,714 231,715 233,715 234,716 235,716 241,722 241,723 242,724 242,726 243,727 243,732 244,733 244,789 264,789 264,788 263,787 264,786 264,733 263,732 263,720 262,719 262,716 261,715 261,713 260,712 260,711 259,710 259,709 258,708 258,707 255,704 255,703 253,701 252,701 250,699 249,699 248,698 247,698 246,697 245,697 244,696 242,696 241,695 224,695 223,696 220,696 219,697 218,697 217,698 216,698 215,699 214,699 213,700 212,700 204,708 203,707 203,706 197,700 196,700 195,699 194,699 193,698 192,698 191,697 190,697 189,696 186,696 185,695" /><polygon fill="black" points="734,674 734,696 733,697 720,697 720,715 733,715 734,716 734,767 735,768 735,773 736,774 736,776 737,777 737,779 738,780 738,781 745,788 746,788 747,789 749,789 750,790 752,790 753,791 761,791 762,792 766,792 767,791 774,791 775,790 778,790 778,786 779,785 779,773 780,772 777,772 776,773 773,773 772,774 764,774 763,773 761,773 760,772 759,772 757,770 757,769 756,768 756,767 755,766 755,716 756,715 778,715 778,708 779,707 779,697 755,697 754,696 755,695 755,674" /><polygon fill="black" points="487,194 486,195 476,195 475,196 469,196 468,197 463,197 462,198 458,198 457,199 453,199 452,200 449,200 448,201 445,201 444,202 441,202 440,203 438,203 437,204 435,204 434,205 432,205 431,206 429,206 428,207 426,207 425,208 423,208 422,209 421,209 420,210 418,210 417,211 416,211 415,212 414,212 413,213 411,213 410,214 409,214 408,215 407,215 406,216 405,216 404,217 403,217 402,218 401,218 399,220 398,220 397,221 396,221 395,222 394,222 392,224 391,224 389,226 388,226 386,228 385,228 383,230 382,230 380,232 379,232 376,235 375,235 372,238 371,238 367,242 366,242 357,251 356,251 356,252 346,262 346,263 340,269 328,269 327,270 325,270 324,271 322,271 321,272 320,272 319,273 318,273 316,275 315,275 309,281 309,282 307,284 307,285 306,286 306,287 305,288 305,289 304,290 304,291 303,292 303,295 302,296 302,309 303,310 303,313 304,314 304,316 305,317 305,318 306,319 306,320 307,321 307,322 311,326 311,327 312,328 313,328 315,330 315,332 314,333 314,336 313,337 313,341 312,342 312,346 311,347 311,352 310,353 310,376 311,377 311,381 312,382 312,386 313,387 313,389 314,390 314,392 315,393 315,394 316,395 316,397 317,398 317,399 318,400 318,401 319,402 319,403 320,404 320,405 322,407 322,408 325,411 325,412 329,416 329,417 333,421 334,421 338,425 339,425 341,427 342,427 344,429 345,429 346,430 347,430 349,432 350,432 351,433 352,433 353,434 355,434 356,435 357,435 358,436 360,436 361,437 363,437 364,438 367,438 368,439 372,439 373,440 377,440 378,441 389,441 390,442 394,442 395,441 405,441 406,440 410,440 411,439 413,439 414,438 416,438 417,437 418,437 419,436 420,436 421,435 422,435 424,433 425,433 433,425 433,424 435,422 435,421 436,420 436,419 437,418 437,417 438,416 438,415 439,414 439,411 440,410 440,406 441,405 441,326 442,325 442,323 445,320 446,320 447,319 451,319 452,320 454,320 456,322 457,322 464,329 464,330 466,332 466,333 469,336 469,337 472,340 472,341 475,344 475,345 477,347 477,348 480,351 480,352 483,355 483,356 485,358 485,359 488,362 488,363 490,365 490,366 493,369 493,370 496,373 496,374 498,376 498,377 501,380 501,381 505,385 506,385 507,386 509,386 510,387 511,386 515,386 519,382 519,381 522,378 522,377 525,374 525,373 528,370 528,369 531,366 531,365 533,363 533,362 536,359 536,358 539,355 539,354 541,352 541,351 544,348 544,347 547,344 547,343 549,341 549,340 552,337 552,336 555,333 555,332 558,329 558,328 564,322 565,322 567,320 569,320 570,319 574,319 575,320 576,320 579,323 579,325 580,326 580,413 581,414 581,420 582,421 582,425 583,426 583,428 584,429 584,430 585,431 585,433 586,434 586,435 587,436 587,437 588,438 588,439 590,441 590,442 594,446 593,447 589,447 588,448 583,448 582,449 577,449 576,450 568,450 567,451 556,451 555,452 546,452 545,453 537,453 536,454 531,454 530,455 526,455 525,456 522,456 521,457 518,457 517,458 515,458 514,459 512,459 511,460 510,460 509,461 508,461 507,462 506,462 505,463 504,463 503,464 502,464 500,466 499,466 497,468 496,468 493,471 493,472 491,474 491,475 490,476 490,477 489,478 489,480 488,481 488,488 489,489 489,491 490,492 490,493 493,496 493,497 495,499 496,499 500,503 501,503 502,504 503,504 505,506 506,506 507,507 508,507 510,509 511,509 512,510 513,510 515,512 516,512 518,514 519,514 521,516 522,516 524,518 525,518 528,521 529,521 532,524 533,524 537,528 538,528 549,539 550,539 551,540 551,541 561,551 561,552 566,557 566,558 569,561 569,562 570,563 570,564 564,570 564,571 562,573 562,574 560,576 560,577 559,578 559,579 558,580 558,582 557,583 557,586 556,587 556,600 557,601 557,604 558,605 558,607 559,608 559,609 561,611 561,612 563,614 563,615 566,618 567,618 570,621 571,621 572,622 573,622 574,623 575,623 576,624 578,624 579,625 583,625 584,626 592,626 593,625 597,625 598,624 600,624 601,623 602,623 603,622 604,622 605,621 606,621 609,618 610,618 613,615 613,614 616,611 616,610 617,609 617,608 618,607 618,606 619,605 619,603 620,602 620,597 621,596 621,591 620,590 620,585 619,584 619,582 618,581 618,580 617,579 617,578 616,577 616,576 615,575 615,574 613,572 613,571 606,564 605,564 602,561 603,560 603,544 604,543 604,536 605,535 605,530 606,529 606,524 607,523 607,519 608,518 608,515 609,514 609,511 610,510 610,507 611,506 611,503 612,502 612,500 613,499 613,497 614,496 614,494 615,493 615,491 616,490 616,488 617,487 617,486 618,485 618,483 619,482 619,481 620,480 620,479 621,478 621,477 622,476 622,475 624,473 624,472 627,469 627,468 631,464 632,464 635,461 636,461 637,460 640,460 641,459 642,459 643,458 645,458 646,457 648,457 649,456 650,456 651,455 653,455 654,454 655,454 656,453 657,453 658,452 659,452 660,451 661,451 662,450 663,450 664,449 665,449 667,447 668,447 670,445 671,445 674,442 675,442 680,437 681,437 687,431 687,430 692,425 692,424 695,421 695,420 697,418 697,417 698,416 698,415 700,413 700,412 701,411 701,410 702,409 702,408 703,407 703,406 704,405 704,404 705,403 705,401 706,400 706,399 707,398 707,396 708,395 708,393 709,392 709,389 710,388 710,385 711,384 711,381 712,380 712,375 713,374 713,366 714,365 714,352 713,351 713,341 712,340 712,335 711,334 711,330 710,329 710,326 709,325 709,321 708,320 708,318 707,317 707,315 706,314 706,312 705,311 705,309 704,308 704,306 703,305 703,304 702,303 702,301 701,300 701,299 700,298 700,297 699,296 699,295 698,294 698,293 697,292 697,291 696,290 696,289 694,287 694,286 693,285 693,284 691,282 691,281 690,280 690,279 688,277 688,276 686,274 686,273 683,270 683,269 678,264 678,263 669,254 669,253 668,252 667,252 657,242 656,242 653,239 652,239 649,236 648,236 645,233 644,233 642,231 641,231 639,229 638,229 636,227 635,227 633,225 632,225 631,224 630,224 628,222 627,222 626,221 625,221 624,220 623,220 622,219 621,219 620,218 619,218 618,217 617,217 616,216 615,216 614,215 613,215 612,214 611,214 610,213 608,213 607,212 606,212 605,211 604,211 603,210 601,210 600,209 599,209 598,208 596,208 595,207 593,207 592,206 590,206 589,205 587,205 586,204 584,204 583,203 580,203 579,202 577,202 576,201 573,201 572,200 568,200 567,199 563,199 562,198 558,198 557,197 551,197 550,196 543,196 542,195 534,195 533,194" /></svg>